# xmcd
#
# Track frame offsets: 
#        150
#        20631
#        33324
#        53493
#        66395
#        78787
#        95588
#        109703
#        124934
#        132735
#        146649
#        167678
#        181891
#        198105
#        209505
#        224655
#        242730
#        253882
#        273929
#        290504
#
# Disc length: 4145 seconds
#
# Revision: 0
# Processed by: cddbd v1.5.2PL0 Copyright (c) Steve Scherf et al.
# Submitted via: ExactAudioCopy v1.0b4
#
DISCID=35102f14
DTITLE=Eric Lindell - The Best Of Eric Lindell
DYEAR=2015
DGENRE=Blues
TTITLE0=Lay Back Down (remastered)
TTITLE1=Casanova (remastered)
TTITLE2=It's My Pleasure (remastered)
TTITLE3=Low On Cash (remastered)
TTITLE4=Josephine (remastered)
TTITLE5=Tried And True (remastered)
TTITLE6=If Love Can't Find A Way (remastered)
TTITLE7=Dirty Bird (remastered)
TTITLE8=Lazy Days (remastered)
TTITLE9=Country Livin' (remastered)
TTITLE10=Uncle John (remastered)
TTITLE11=Feel Like I Do (remastered)
TTITLE12=Mind Your Business (remastered)
TTITLE13=The Look (remastered)
TTITLE14=See Me Through (remastered)
TTITLE15=It's A Pity (remastered)
TTITLE16=This Love Is Gonna Last (remastered)
TTITLE17=All Alone (remastered)
TTITLE18=Raw Doggin' (remastered)
TTITLE19=Give It Time (remastered)
EXTD=
EXTT0=
EXTT1=
EXTT2=
EXTT3=
EXTT4=
EXTT5=
EXTT6=
EXTT7=
EXTT8=
EXTT9=
EXTT10=
EXTT11=
EXTT12=
EXTT13=
EXTT14=
EXTT15=
EXTT16=
EXTT17=
EXTT18=
EXTT19=
PLAYORDER=
